<?xml version="1.0" standalone="no"?>
<!DOCTYPE svg PUBLIC "-//W3C//DTD SVG 1.1//EN" "http://www.w3.org/Graphics/SVG/1.1/DTD/svg11.dtd" >
<svg xmlns="http://www.w3.org/2000/svg">
<metadata>Generated by IcoMoon</metadata>
<defs>
<font id="eilisys-icons" horiz-adv-x="1024">
<font-face units-per-em="1024" ascent="960" descent="-64" />
<missing-glyph horiz-adv-x="1024" />
<glyph unicode="&#x20;" horiz-adv-x="512" d="" />
<glyph unicode="&#xe600;" glyph-name="alphabets" d="M361.664 362.464v57.44c0 19.168-0.736 32.416-2.144 39.744-2.56 11.808-7.040 21.568-13.408 29.312-6.368 7.712-16.352 14.144-29.92 19.264-13.568 5.088-31.2 7.648-52.896 7.648-21.856 0-41.088-2.976-57.664-8.96-16.608-5.984-29.28-14.528-38.048-25.632s-15.072-25.632-18.912-43.68l42.112-5.76c4.64 18.048 11.776 30.624 21.408 37.728 9.632 7.072 24.608 10.656 44.864 10.656 21.696 0 38.048-4.896 49.056-14.592 8.128-7.168 12.192-19.552 12.192-37.12 0-1.568-0.096-5.344-0.256-11.264-16.416-5.728-42.048-10.688-76.832-14.816-17.088-2.080-29.856-4.256-38.304-6.464-11.488-3.168-21.824-7.904-31.008-14.112-9.152-6.24-16.608-14.464-22.24-24.768s-8.48-21.664-8.48-34.112c0-21.216 7.488-38.656 22.496-52.288 14.976-13.664 36.448-20.48 64.384-20.48 16.928 0 32.736 2.784 47.52 8.384 14.752 5.568 30.112 15.136 46.048 28.704 1.28-11.968 4.16-22.4 8.608-31.36h44.992c-5.44 9.728-9.056 19.904-10.912 30.528-1.728 10.624-2.656 35.968-2.656 76zM318.112 367.744c0-19.008-2.304-33.344-6.944-43.104-6.048-12.608-15.552-22.528-28.48-29.824-12.928-7.232-27.68-10.88-44.288-10.88-16.768 0-29.472 3.84-38.176 11.488-8.672 7.68-13.024 17.28-13.024 28.736 0 7.488 1.984 14.304 5.984 20.48 4 6.112 9.632 10.816 16.992 13.984 7.328 3.168 19.872 6.048 37.568 8.608 31.264 4.48 54.72 9.856 70.368 16.256v-15.744zM619.808 479.872c-9.024 11.392-20.512 20.256-34.464 26.56s-28.768 9.44-44.384 9.44c-28.256 0-51.456-11.424-69.664-34.208v125.152h-43.072v-350.848h39.968v31.84c17.056-25.056 40.608-37.6 70.592-37.6 30.144 0 56 11.904 77.536 35.648 21.536 23.808 32.288 57.472 32.288 100.992 0 18.368-2.56 35.584-7.648 51.712s-12.16 29.888-21.152 41.312zM584 310.176c-13.728-16.352-30.016-24.544-48.832-24.544-23.136 0-41.472 11.104-55.040 33.248-8.288 13.568-12.448 35.584-12.448 66.080 0 30.944 6.848 54.592 20.576 70.944s30.016 24.544 48.832 24.544c18.656 0 34.592-7.872 47.744-23.712 13.152-15.776 19.744-40.256 19.744-73.44 0.032-32.416-6.848-56.768-20.576-73.12zM866.88 349.056c-3.008-21.536-10.208-37.504-21.536-47.84-11.328-10.4-25.44-15.552-42.368-15.552-21.056 0-38.144 7.744-51.232 23.232s-19.616 40.288-19.616 74.432c0 33.632 6.784 58.272 20.352 73.824 13.568 15.52 31.2 23.328 52.896 23.328 14.368 0 26.592-4.32 36.736-12.928s17.184-21.44 21.184-38.528l41.888 6.464c-4.96 25.696-16.192 45.504-33.76 59.488-17.568 13.952-40.128 20.928-67.744 20.928-21.856 0-42.080-5.152-60.672-15.424-18.592-10.304-32.416-25.728-41.536-46.304-9.088-20.576-13.632-44.608-13.632-72.064 0-42.432 10.56-75.008 31.712-97.76s49.088-34.112 83.904-34.112c27.744 0 51.168 8.256 70.24 24.8 19.072 16.512 30.912 39.36 35.552 68.544l-42.368 5.472z" />
<glyph unicode="&#xe601;" glyph-name="angle-left" d="M704.704 812.512c6.144 0 12.288-2.336 16.96-7.040 9.376-9.376 9.376-24.544 0-33.92l-342.656-342.656 343.392-343.392c9.376-9.376 9.376-24.576 0-33.952s-24.544-9.376-33.92 0l-360.384 360.352c-4.512 4.512-7.040 10.592-7.040 16.992s2.528 12.48 7.040 16.992l359.648 359.584c4.704 4.704 10.816 7.040 16.96 7.040z" />
<glyph unicode="&#xe602;" glyph-name="angle-right" d="M345.792 44.512c-6.144 0-12.288 2.336-16.96 7.040-9.376 9.376-9.376 24.544 0 33.92l342.656 342.688-343.392 343.392c-9.376 9.376-9.376 24.576 0 33.952s24.544 9.376 33.92 0l360.384-360.384c4.512-4.512 7.040-10.592 7.040-16.992 0-6.368-2.528-12.48-7.040-16.992l-359.648-359.584c-4.672-4.704-10.816-7.040-16.96-7.040z" />
<glyph unicode="&#xe603;" glyph-name="apply-leave" d="M750.24 44.512h-592.48c-11.008 0-16.512 5.504-16.512 16.512v735.008c0 11.008 5.504 16.512 16.512 16.512h295.488c4 0 7.488-1.504 10.496-4.512l296.992-250.496c4-4 6.016-8 6.016-12v-139.488c0-9.984-5.504-15.008-16.512-15.008s-16.512 4.992-16.512 15.008v132l-286.496 243.008h-274.464v-704.992h560.992v61.504c0 11.008 5.504 16.512 16.512 16.512s16.512-5.504 16.512-16.512v-76.512c-0.032-11.040-5.536-16.544-16.544-16.544zM541.76 406.016h-255.008c-9.984 0-15.008 5.472-15.008 16.512 0 11.008 4.992 16.512 15.008 16.512h255.008c11.008 0 16.512-5.504 16.512-16.512 0-11.040-5.504-16.512-16.512-16.512zM541.76 293.504h-255.008c-9.984 0-15.008 4.992-15.008 15.008 0 11.008 4.992 16.512 15.008 16.512h255.008c11.008 0 16.512-5.504 16.512-16.512 0-9.984-5.504-15.008-16.512-15.008zM541.76 179.52h-255.008c-9.984 0-15.008 5.504-15.008 16.512 0 9.984 4.992 15.008 15.008 15.008h255.008c11.008 0 16.512-4.992 16.512-15.008 0-11.008-5.504-16.512-16.512-16.512zM750.24 530.528h-296.992c-9.984 0-15.008 4.992-15.008 15.008v235.488c0 9.984 4.992 15.008 15.008 15.008 11.008 0 16.512-5.024 16.512-15.008v-219.008h280.48c11.008 0 16.512-5.504 16.512-16.512 0-9.984-5.504-14.976-16.512-14.976zM759.232 125.504c-41.984 0-77.728 14.24-107.232 42.752s-44.256 63.264-44.256 104.256 14.752 75.744 44.256 104.256 65.248 42.752 107.232 42.752c40.992 0 76.256-14.496 105.76-43.488s44.256-63.488 44.256-103.488-14.752-74.496-44.256-103.488-64.736-43.552-105.76-43.552zM759.232 388.032c-32.992 0-60.992-11.264-84-33.76s-34.496-49.76-34.496-81.76 11.488-59.264 34.496-81.76c22.976-22.496 50.976-33.76 84-33.76 32 0 59.744 11.488 83.264 34.496s35.264 49.984 35.264 80.992-11.744 57.984-35.264 80.992-51.264 34.56-83.264 34.56zM706.752 256.032c-11.008 0-16.512 5.504-16.512 16.512 0 9.984 5.504 15.008 16.512 15.008l103.488 1.504c11.008 0 16.512-5.504 16.512-16.512s-5.504-16.512-16.512-16.512h-103.488zM759.232 205.024c-11.008 0-16.512 5.504-16.512 16.512v101.984c0 9.984 5.504 15.008 16.512 15.008 9.984 0 15.008-4.992 15.008-15.008v-102.016c0-10.976-4.992-16.48-15.008-16.48z" />
<glyph unicode="&#xe604;" glyph-name="backward" d="M498.592 428.896c0-6.368 2.528-12.48 7.040-16.992l360.384-360.384c9.376-9.344 24.544-9.376 33.92 0s9.376 24.576 0 33.952l-343.392 343.424 342.656 342.656c9.376 9.376 9.376 24.544 0 33.92-4.672 4.672-10.816 7.040-16.96 7.040s-12.288-2.336-16.96-7.040l-359.68-359.616c-4.512-4.512-7.008-10.592-7.008-16.96zM150.592 411.904l360.384-360.384c9.376-9.344 24.544-9.376 33.92 0s9.376 24.576 0 33.952l-343.392 343.424 342.656 342.656c9.376 9.376 9.376 24.544 0 33.92-4.672 4.672-10.816 7.040-16.96 7.040s-12.288-2.336-16.96-7.040l-359.648-359.616c-4.512-4.512-7.040-10.592-7.040-16.992 0-6.368 2.528-12.448 7.040-16.96z" />
<glyph unicode="&#xe605;" glyph-name="binoculars" d="M394.752 190.080c-28.992-28.512-64-42.752-104.992-42.752s-76 14.272-104.992 42.752-43.488 62.752-43.488 102.752 14.496 74.24 43.488 102.752 64 42.752 104.992 42.752 76-14.24 104.992-42.752 43.488-62.752 43.488-102.752-14.464-74.24-43.488-102.752zM423.264 268.832h-3.008c-11.008 1.984-15.488 8.512-13.504 19.488l60 336c-7.008 23.008-19.008 38.016-36 44.992-24.992 11.008-56.512 8.992-94.496-6.016l-154.496-328.448c-6.016-9.984-12.992-12.512-20.992-7.488-9.984 3.008-12.992 9.984-8.992 20.992l157.472 334.496c1.984 4 4.992 6.496 8.992 7.488 1.984 1.984 8.992 4.736 20.992 8.256 12 3.488 28 6.496 48 8.992s39.008-0.736 56.992-9.76c27.008-12 44.992-34.496 54.016-67.488 0.992-0.992 1.504-3.52 1.504-7.488l-61.504-340.512c-1.984-8.992-6.976-13.504-14.976-13.504zM372.256 373.088c-23.008 22.496-50.496 33.76-82.496 33.76s-59.488-11.264-82.496-33.76-34.496-49.248-34.496-80.256 11.488-57.504 34.496-79.488 50.496-32.992 82.496-32.992 59.488 11.008 82.496 32.992 34.496 48.512 34.496 79.488-11.488 57.76-34.496 80.256zM607.776 387.328h-164.992c-11.008 0-16.512 5.504-16.512 16.512 0 9.984 5.504 15.008 16.512 15.008h164.992c11.008 0 16.512-5.024 16.512-15.008-0.032-11.008-5.536-16.512-16.512-16.512zM573.248 535.84h-96c-11.008 0-16.512 5.472-16.512 16.512 0 9.984 5.504 15.008 16.512 15.008h96c11.008 0 16.512-5.024 16.512-15.008 0-11.040-5.504-16.512-16.512-16.512zM627.264 268.832c-8 0-12.992 4.512-15.008 13.504l-61.504 340.512c0 4 0.512 6.496 1.504 7.488 8.992 32.992 27.008 55.488 54.016 67.488 39.008 17.984 81.472 15.488 127.488-7.488 3.008-2.016 5.504-4.512 7.488-7.488l157.504-334.496c4-11.008 0.992-17.984-8.992-20.992-8-4.992-15.008-2.496-20.992 7.488l-154.528 328.48c-37.984 15.008-69.472 16.992-94.496 6.016-16.992-7.008-28.992-22.016-36-44.992l60-337.504c1.984-9.984-2.496-16-13.504-17.984h-2.976zM865.76 190.080c-28.992-28.512-64-42.752-104.992-42.752s-76 14.24-104.992 42.752c-28.992 28.512-43.488 62.752-43.488 102.752s14.496 74.24 43.488 102.752c28.992 28.512 64 42.752 104.992 42.752s76-14.24 104.992-42.752 43.488-62.752 43.488-102.752-14.496-74.24-43.488-102.752zM843.232 373.088c-23.008 22.496-50.496 33.76-82.496 33.76s-59.488-11.264-82.496-33.76c-23.008-22.496-34.496-49.248-34.496-80.256s11.488-57.504 34.496-79.488c22.976-22.016 50.496-32.992 82.496-32.992s59.488 11.008 82.496 32.992 34.496 48.512 34.496 79.488-11.488 57.76-34.496 80.256z" />
<glyph unicode="&#xe606;" glyph-name="bold" d="M712.32 457.024c33.888 37.792 54.72 87.52 54.72 142.176 0 117.632-95.68 213.344-213.344 213.344h-312.896v-768h336.8c127.968 0 232.096 102.080 232.096 227.552 0 76.192-38.528 143.616-97.376 184.928zM354.592 698.752h199.104c54.912 0 99.552-44.672 99.552-99.552 0-54.912-44.672-99.552-99.552-99.552h-199.104v199.104zM577.6 158.304h-223.008v227.552h223.008c65.248 0 118.336-51.040 118.336-113.792s-53.088-113.76-118.336-113.76z" />
<glyph unicode="&#xe607;" glyph-name="broken-link" d="M861.92 765.248c-63.008 63.008-165.568 63.008-228.608 0l-81.088-81.12c-30.56-30.496-47.36-71.104-47.36-114.304 0-35.008 11.552-68.032 32.032-95.68l-57.248-57.248c-27.616 20.48-60.64 32.032-95.68 32.032-43.2 0-83.776-16.832-114.304-47.36l-81.12-81.088c-63.008-63.040-63.008-165.568 0-228.608 30.528-30.528 71.136-47.36 114.304-47.36s83.776 16.832 114.304 47.36l81.088 81.088c57.216 57.216 61.92 146.688 15.264 209.92l57.376 57.376c28.416-20.96 61.856-32 95.616-32 41.408 0 82.816 15.776 114.304 47.264l81.088 81.12c30.528 30.496 47.36 71.104 47.36 114.304 0 43.168-16.8 83.776-47.328 114.304zM464.288 206.912l-81.088-81.088c-42.912-42.944-117.792-42.944-160.704 0-44.288 44.32-44.288 116.416 0 160.736l81.12 81.088c21.472 21.472 50.016 33.28 80.352 33.28 22.176 0 43.296-6.432 61.504-18.208l-81.504-81.504 33.952-33.92 81.472 81.472c28.352-44 23.36-103.36-15.104-141.856zM827.968 570.592l-81.088-81.12c-38.496-38.496-97.888-43.424-141.888-15.072l95.36 95.36-33.952 33.92-95.328-95.328c-11.776 18.176-18.208 39.328-18.208 61.472 0 30.368 11.808 58.88 33.312 80.384l81.088 81.12c44.32 44.288 116.416 44.288 160.736 0 21.472-21.472 33.28-50.016 33.28-80.384-0.032-30.336-11.84-58.88-33.312-80.352z" />
<glyph unicode="&#xe608;" glyph-name="calender" d="M795.968 52.768h-540c-32 0-59.008 11.008-80.992 32.992s-32.992 48.992-32.992 80.992v448.512c0 32 11.008 59.008 32.992 80.992 22.016 21.984 48.992 33.024 80.992 33.024h538.496c32 0 59.008-11.008 80.992-32.992 22.016-22.016 32.992-48.992 32.992-80.992v-448.512c0.992-31.008-8.992-57.984-30.016-80.992-24.96-22.016-52.48-33.024-82.464-33.024zM255.968 697.76c-23.008 0-42.496-8-58.496-24s-24-35.488-24-58.496v-448.512c0-23.008 8-42.496 24-58.496s35.488-24 58.496-24h540c23.008 0 42.496 8 58.496 24 15.008 16.992 22.496 36.512 22.496 58.496v448.512c0 23.008-8 42.496-24 58.496s-35.488 24-58.496 24h-538.496zM255.968 519.264h80.992v-31.488h-80.992v31.488zM255.968 408.256h80.992v-32.992h-80.992v32.992zM255.968 295.776h80.992v-31.488h-80.992v31.488zM255.968 186.272h80.992v-32.992h-80.992v32.992zM311.488 804.256h31.488v-185.984h-31.488v185.984zM408.992 519.264h82.496v-31.488h-82.496v31.488zM408.992 408.256h82.496v-32.992h-82.496v32.992zM408.992 295.776h82.496v-31.488h-82.496v31.488zM408.992 186.272h82.496v-32.992h-82.496v32.992zM444.992 804.256h31.488v-185.984h-31.488v185.984zM560.48 519.264h82.496v-31.488h-82.496v31.488zM560.48 408.256h82.496v-32.992h-82.496v32.992zM560.48 295.776h82.496v-31.488h-82.496v31.488zM560.48 186.272h82.496v-32.992h-82.496v32.992zM575.488 804.256h31.488v-185.984h-31.488v185.984zM708.96 804.256h31.488v-185.984h-31.488v185.984zM714.976 519.264h80.992v-31.488h-80.992v31.488zM714.976 408.256h80.992v-32.992h-80.992v32.992zM714.976 295.776h80.992v-31.488h-80.992v31.488z" />
<glyph unicode="&#xe609;" glyph-name="check-box" d="M765.248 812.512h-480c-79.392 0-144-64.608-144-144v-480c0-79.392 64.608-144 144-144h480c79.392 0 144 64.608 144 144v480c0 79.392-64.608 144-144 144zM861.28 188.512c0-52.928-43.072-96-96-96h-480c-52.928 0-96 43.072-96 96v480c0 52.928 43.072 96 96 96h480c52.928 0 96-43.072 96-96v-480zM453.216 348.992l-113.408 131.872-38.56-33.152 147.008-170.976 300.992 265.376-33.632 38.176z" />
<glyph unicode="&#xe60a;" glyph-name="check-o" d="M388.896 172.512c-0.704 0-1.472 0.032-2.208 0.096-6.976 0.608-13.408 4.064-17.792 9.536l-247.648 310.336c-8.832 11.072-7.040 27.168 4.032 35.968 11.104 8.832 27.232 7.008 35.968-4.032l230.816-289.28 500.224 442.976c10.56 9.344 26.752 8.416 36.128-2.176s8.416-26.752-2.176-36.128l-520.384-460.864c-4.704-4.16-10.752-6.432-16.96-6.432z" />
<glyph unicode="&#xe60b;" glyph-name="copy-data" d="M679.584 380.544h99.328c10.432 0 18.88 8.448 18.88 18.88 0 10.4-8.448 18.88-18.88 18.88h-99.328c-10.432 0-18.88-8.448-18.88-18.88 0-10.4 8.448-18.88 18.88-18.88zM679.584 317.984h99.328c10.432 0 18.88 8.448 18.88 18.848s-8.448 18.88-18.88 18.88h-99.328c-10.432 0-18.88-8.448-18.88-18.88 0-10.4 8.448-18.848 18.88-18.848zM679.584 255.392h99.328c10.432 0 18.88 8.448 18.88 18.88s-8.448 18.88-18.88 18.88h-99.328c-10.432 0-18.88-8.448-18.88-18.88s8.448-18.88 18.88-18.88zM810.848 493.28h-165.472c-25.312 0-45.92-19.776-45.92-44.096v-224.704c0-24.32 20.608-44.096 45.92-44.096h67.2v-71.584c0-8.832-8.704-16.288-19.008-16.288h-432.864c-10.304 0-19.008 7.456-19.008 16.288v543.808c0 8.832 8.704 16.288 19.008 16.288h65.12l-15.744-34.784c-3.36-7.424-2.752-16.064 1.696-22.912 4.416-6.848 12-10.976 20.16-10.976h290.432c8.16 0 15.744 4.128 20.16 10.976s5.056 15.488 1.696 22.912l-15.744 34.784h65.12c10.304 0 19.008-7.456 19.008-16.288v-158.592h48v158.592c0 35.456-30.048 64.288-66.976 64.288h-86.848l-16.224 35.808c-3.872 8.576-12.448 14.080-21.856 14.080h-32.48c8.288 3.776 14.112 12.032 14.112 21.728 0 13.248-10.752 24-24 24h-98.24c-13.248 0-24-10.752-24-24 0-9.696 5.824-17.952 14.112-21.728h-32.48c-9.408 0-17.984-5.504-21.856-14.080l-16.224-35.808h-86.944c-36.928 0-66.976-28.832-66.976-64.288v-543.808c0-35.456 30.048-64.288 66.976-64.288h432.896c36.928 0 66.976 28.832 66.976 64.288v71.584h50.272c25.312 0 45.92 19.776 45.92 44.096v224.704c0 24.32-20.576 44.096-45.92 44.096zM401.152 718.784h152.064l31.968-70.592h-216l31.968 70.592zM808.8 228.384h-161.312v216.928h161.312v-216.928z" />
<glyph unicode="&#xe60c;" glyph-name="copy-html" d="M685.792 108.8c0-8.832-8.704-16.288-19.008-16.288h-432.896c-10.304 0-19.008 7.488-19.008 16.288v543.808c0 8.832 8.704 16.288 19.008 16.288h65.12l-15.744-34.784c-3.36-7.424-2.752-16.064 1.696-22.912 4.416-6.848 12-10.976 20.16-10.976h290.432c8.16 0 15.744 4.128 20.16 10.976s5.056 15.488 1.696 22.912l-15.744 34.784h65.12c10.304 0 19.008-7.456 19.008-16.288v-158.592h48v158.592c0 35.456-30.048 64.288-66.976 64.288h-86.88l-16.224 35.808c-3.872 8.576-12.448 14.080-21.856 14.080h-32.48c8.288 3.776 14.112 12.032 14.112 21.728 0 13.248-10.752 24-24 24h-98.24c-13.248 0-24-10.752-24-24 0-9.696 5.824-17.952 14.112-21.728h-32.48c-9.408 0-17.984-5.504-21.856-14.080l-16.224-35.808h-86.912c-36.928 0-66.976-28.832-66.976-64.288v-543.808c0-35.456 30.048-64.288 66.976-64.288h432.896c36.928 0 66.976 28.832 66.976 64.288v71.584h-48v-71.584zM374.336 718.784h152.064l31.968-70.592h-216l31.968 70.592zM871.68 357.6l-80.48 46.816c-11.040 6.4-24.896 2.848-31.872-7.616l18.688 57.856c4.064 12.64-2.848 26.176-15.456 30.24-12.672 4.064-26.144-2.88-30.208-15.456l-58.304-180.544c0.384 8.64-3.616 17.216-11.616 21.856l-44.8 26.112 44.8 26.080c11.456 6.656 15.328 21.344 8.672 32.8-6.656 11.424-21.344 15.328-32.8 8.672l-80.448-46.816c-7.392-4.32-11.936-12.192-11.936-20.736s4.544-16.448 11.936-20.736l80.448-46.848c3.808-2.208 7.968-3.264 12.032-3.264 7.872 0 15.328 4.064 19.904 11.072l-18.752-58.016c-4.064-12.64 2.848-26.176 15.456-30.24 2.464-0.8 4.928-1.152 7.392-1.152 10.144 0 19.552 6.464 22.848 16.608l58.304 180.48c-0.384-8.64 3.616-17.216 11.616-21.856l44.832-26.080-44.832-26.112c-11.456-6.656-15.328-21.344-8.672-32.8 4.448-7.68 12.512-11.936 20.768-11.936 4.096 0 8.256 1.056 12.032 3.264l80.48 46.848c7.392 4.32 11.936 12.192 11.936 20.736s-4.576 16.448-11.968 20.768z" />
<glyph unicode="&#xe60d;" glyph-name="copy-txt" d="M720.064 108.8c0-8.832-8.704-16.288-19.008-16.288h-432.896c-10.304 0-19.008 7.488-19.008 16.288v543.808c0 8.832 8.704 16.288 19.008 16.288h65.12l-15.744-34.784c-3.36-7.424-2.752-16.064 1.696-22.912 4.416-6.848 12-10.976 20.16-10.976h290.432c8.16 0 15.744 4.128 20.16 10.976s5.056 15.488 1.696 22.912l-15.744 34.784h65.12c10.304 0 19.008-7.456 19.008-16.288v-158.592h48v158.592c0 35.456-30.048 64.288-66.976 64.288h-86.88l-16.224 35.808c-3.872 8.576-12.448 14.080-21.856 14.080h-32.48c8.288 3.776 14.112 12.032 14.112 21.728 0 13.248-10.752 24-24 24h-98.24c-13.248 0-24-10.752-24-24 0-9.696 5.824-17.952 14.112-21.728h-32.48c-9.408 0-17.984-5.504-21.856-14.080l-16.224-35.808h-86.912c-36.928 0-66.976-28.832-66.976-64.288v-543.808c0-35.456 30.048-64.288 66.976-64.288h432.896c36.928 0 66.976 28.832 66.976 64.288v71.584h-48v-71.584zM408.576 718.784h152.064l31.968-70.592h-216l31.968 70.592zM823.744 435.392h-161.888c-14.144 0-25.6-11.456-25.6-25.6s11.456-25.6 25.6-25.6h55.328v-116.96c0-14.112 11.456-25.6 25.6-25.6s25.6 11.456 25.6 25.6v116.96h55.328c14.144 0 25.6 11.456 25.6 25.6s-11.424 25.6-25.568 25.6z" />
<glyph unicode="&#xe60e;" glyph-name="copy" d="M807.968 699.36h-459.552c-14.208 0-25.728-11.52-25.728-25.728v-603.36c0-14.208 11.52-25.728 25.728-25.728h459.552c14.208 0 25.728 11.52 25.728 25.728v603.36c0 14.176-11.52 25.728-25.728 25.728zM782.24 96h-408.096v551.872h408.064v-551.872zM727.84 786.784c0 14.208-11.52 25.728-25.728 25.728h-459.552c-14.208 0-25.728-11.52-25.728-25.728v-603.36c0-14.208 11.52-25.728 25.728-25.728s25.728 11.52 25.728 25.728v577.632h433.824c14.208 0 25.728 11.52 25.728 25.728zM422.048 243.328h312.256c14.208 0 25.728 11.52 25.728 25.728s-11.52 25.728-25.728 25.728h-312.256c-14.208 0-25.728-11.52-25.728-25.728s11.52-25.728 25.728-25.728zM422.048 143.648h312.256c14.208 0 25.728 11.52 25.728 25.728s-11.52 25.728-25.728 25.728h-312.256c-14.208 0-25.728-11.52-25.728-25.728s11.52-25.728 25.728-25.728zM422.048 542.336h312.256c14.208 0 25.728 11.52 25.728 25.728s-11.52 25.728-25.728 25.728h-312.256c-14.208 0-25.728-11.52-25.728-25.728s11.52-25.728 25.728-25.728zM422.048 442.656h312.256c14.208 0 25.728 11.52 25.728 25.728s-11.52 25.728-25.728 25.728h-312.256c-14.208 0-25.728-11.52-25.728-25.728s11.52-25.728 25.728-25.728zM422.048 342.976h312.256c14.208 0 25.728 11.52 25.728 25.728s-11.52 25.728-25.728 25.728h-312.256c-14.208 0-25.728-11.52-25.728-25.728s11.52-25.728 25.728-25.728z" />
<glyph unicode="&#xe60f;" glyph-name="cross-o" d="M553.568 428.48l285.824 285.824c7.808 7.808 7.808 20.48 0 28.288-7.808 7.776-20.48 7.776-28.288 0l-285.824-285.824-285.888 285.92c-7.808 7.776-20.48 7.776-28.288 0-7.808-7.808-7.808-20.48 0-28.288l285.888-285.888-285.824-285.824c-7.808-7.808-7.808-20.48 0-28.288 3.904-3.904 9.024-5.856 14.144-5.856s10.24 1.952 14.144 5.856l285.824 285.824 285.728-285.728c3.904-3.904 9.024-5.856 14.144-5.856s10.24 1.952 14.144 5.856c7.808 7.808 7.808 20.48 0 28.288l-285.728 285.696z" />
<glyph unicode="&#xe610;" glyph-name="cut" d="M821.056 407.296c-28.192 4.96-56.448-1.312-79.808-17.632-23.392-16.32-38.976-40.8-43.968-68.896-0.448-2.528-0.32-5.024-0.576-7.552l-59.456 347.456c-4.512 25.344-22.208 57.664-41.12 75.104l-68 62.56c-20.864 19.168-37.248 14.72-45.216 10.4-7.904-4.352-20.48-15.808-15.52-43.648l59.84-338.592-338.56 59.872c-27.872 4.96-39.328-7.648-43.648-15.584s-8.768-24.32 10.4-45.152l62.592-67.968c17.44-18.944 49.728-36.64 75.104-41.12l339.84-60.096c-28.096-4.96-52.544-20.576-68.896-43.936-16.352-23.392-22.592-51.712-17.632-79.808 9.184-51.712 54.304-88.16 105.12-88.16 6.144 0 12.352 0.512 18.624 1.632 57.984 10.272 96.8 65.792 86.528 123.744-3.648 20.736-13.184 39.424-27.296 54.432 14.976-14.112 33.664-23.648 54.4-27.296 6.272-1.12 12.48-1.632 18.624-1.632 50.784 0 95.968 36.48 105.152 88.224 10.272 57.92-28.576 113.408-86.528 123.648zM301.504 363.808c-14.944 2.656-37.92 15.232-48.16 26.368l-39.648 43.040 372.8-65.888-65.92 372.736 43.040-39.584c11.136-10.272 23.744-33.248 26.368-48.16l61.408-347.104 0.48-3.264-72.064 12.64-278.304 49.216zM661.856 93.408c-31.904-5.536-62.496 15.712-68.128 47.648-2.752 15.456 0.704 31.072 9.696 43.936s22.464 21.472 37.92 24.192c3.456 0.608 6.912 0.896 10.368 0.896 11.936 0 23.584-3.648 33.568-10.624 12.864-8.992 21.44-22.464 24.16-37.92 5.664-31.872-15.68-62.432-47.584-68.128zM712.8 238.816c-4.512 3.168-9.376 5.6-14.208 8l9.728-1.376-1.792 10.496c2.464-5.12 5.088-10.208 8.416-14.944 3.808-5.44 8.128-10.336 12.736-14.88-4.576 4.576-9.472 8.928-14.88 12.704zM860.352 291.968c-5.664-31.904-36.192-53.344-68.128-47.68-15.456 2.752-28.928 11.328-37.92 24.192s-12.448 28.48-9.696 43.936c5.024 28.48 29.888 48.544 57.856 48.544 3.36 0 6.816-0.288 10.24-0.896 31.904-5.664 53.248-36.192 47.648-68.096z" />
<glyph unicode="&#xe611;" glyph-name="design" d="M700.32 621.856l-113.696 67.296c-12.16 7.2-27.872 3.2-35.072-8.992l-277.952-469.568c-0.224-0.384-0.224-0.864-0.416-1.248-0.352-0.672-0.448-1.44-0.704-2.144-0.928-2.24-2.016-4.448-2.304-6.88l-16.736-153.024c-1.088-9.856 3.648-19.424 12.096-24.64 4.096-2.496 8.736-3.744 13.344-3.744 4.896 0 9.792 1.408 14.048 4.192l130.464 85.76c0.096 0.064 0.128 0.16 0.192 0.224 0.096 0.064 0.192 0.064 0.256 0.128 3.040 2.112 5.408 4.768 7.232 7.744 0.064 0.096 0.192 0.16 0.256 0.288l277.952 469.568c3.456 5.856 4.448 12.8 2.752 19.36-1.632 6.592-5.888 12.224-11.712 15.68zM318.688 172.896c12.384-2.496 31.36-11.040 53.504-36.448l-61.952-40.704 8.448 77.152zM406.176 175.136c-24.416 26.304-47.84 39.136-67.392 45.024l243.808 411.872 14.304-8.48c-2.24-1.856-4.352-3.904-5.888-6.56l-117.184-197.888c-7.2-12.16-3.168-27.84 8.992-35.072 4.096-2.4 8.608-3.552 13.024-3.552 8.736 0 17.28 4.48 22.048 12.576l117.184 197.888c1.568 2.624 2.368 5.472 2.912 8.32l14.272-8.448-246.080-415.68zM796.416 751.552c-1.696 6.592-5.92 12.224-11.744 15.68l-113.696 67.328c-5.856 3.424-12.8 4.48-19.392 2.784s-12.224-5.952-15.68-11.776l-51.072-86.304c-7.2-12.16-3.168-27.872 8.992-35.072l113.696-67.296c4.064-2.4 8.576-3.552 12.992-3.552 8.736 0 17.28 4.48 22.048 12.576l51.104 86.272c3.456 5.824 4.448 12.8 2.752 19.36zM711.552 693.984l-69.632 41.216 24.992 42.24 69.632-41.248-24.992-42.208z" />
<glyph unicode="&#xe612;" glyph-name="down" d="M324.416 235.2l183.872-183.904c8.96-9.024 24.96-9.024 33.952 0l183.872 183.904c9.376 9.376 9.376 24.544 0 33.952s-24.544 9.376-33.952 0l-142.912-142.912v662.272c0 13.248-10.752 24-24 24s-24-10.752-24-24v-662.304l-142.912 142.912c-4.704 4.704-10.816 7.040-16.96 7.040s-12.288-2.336-16.96-7.040c-9.376-9.376-9.376-24.544 0-33.92z" />
<glyph unicode="&#xe613;" glyph-name="draft" d="M595.776 88.032h-369.024v595.488l128.992 128.992h396v-538.496h-31.488v507.008h-352.512l-109.504-111.008v-550.496h337.504v-31.488zM378.24 659.52h-136.48v31.488h104.992v103.52h31.488v-135.008zM354.24 394.016l-40.512 80.992 88.512-24v-13.504c0-9.984-2.496-19.008-7.488-27.008l-3.008-1.504c-6.016-6.016-14.496-10.496-25.504-13.504l-12-1.472zM318.24 634.016h342.016v-32.992h-342.016v32.992zM318.24 553.024h342.016v-31.488h-342.016v31.488zM436.768 298.016c-6.016 0-10.528 2.496-13.504 7.488l-51.008 88.512c-4 4-4 8.992 0 15.008 4.992 9.984 10.496 17.984 16.512 24 6.016 4.992 12 6.016 17.984 3.008l96-34.496c4-0.992 7.008-4.992 8.992-12 1.984-3.008 0.992-7.488-3.008-13.504l-58.496-72c-2.976-4-7.488-6.016-13.472-6.016zM405.248 401.504l34.528-60 31.488 37.504-66.016 22.496zM711.264 83.52c-3.008 0-6.496 0.992-10.496 3.008l-271.52 220.512c-8.992 7.008-9.504 14.496-1.504 22.496l49.504 61.504c1.984 3.008 5.504 5.504 10.496 7.488 4 0 8-0.992 12-3.008l271.488-222.016c9.984-6.016 10.496-13.504 1.504-22.496l-49.504-61.504c-2.976-4-6.976-5.984-11.968-5.984zM460.768 322.016l248.992-200.992 30.016 37.504-247.488 200.992-31.52-37.504zM522.272 467.52h137.984v-32.992h-137.984v32.992zM759.264 44.512c-3.008 0-6.496 0.992-10.496 3.008l-48 39.008c-3.008 1.984-4.992 5.504-6.016 10.496 0 4 0.992 8 3.008 12l49.504 61.504c7.008 11.008 14.496 11.488 22.496 1.504l48-37.504c1.984-1.984 4-6.016 6.016-12 0-4.992-0.992-8.512-3.008-10.496l-49.504-63.008c-3.008-3.008-7.008-4.512-12-4.512zM735.264 100.032l22.496-16.512 30.016 36-22.496 17.984-30.016-37.472z" />
<glyph unicode="&#xe614;" glyph-name="edit" d="M811.776 334.752l-445.536 448.512c-24 25.984-55.488 39.008-94.496 39.008s-70.496-12.992-94.496-39.008c-27.008-29.024-40.512-60.512-40.512-94.496 0-36 13.504-67.488 40.512-94.496l442.528-444 1.504-3.008 292.512-112.512-102.016 300zM862.752 90.272l-211.168 81.344 136.608 136.608 74.56-217.952zM735.296 300.288l-375.072 376.448 33.696 33.696 375.136-376.384-33.76-33.76zM337.696 654.208l374.368-377.152-31.52-31.52-375.072 376.448 32.224 32.224zM282.24 598.752l375.776-375.744-32.256-32.256-375.776 375.776 32.256 32.224zM168.256 688.768c0 28 11.008 52 32.992 72 17.984 20 41.504 30.016 70.496 30.016 25.984 0 49.984-9.984 72-30.016l27.008-27.104-143.296-144.608-27.712 27.712c-20.992 18.976-31.488 42.976-31.488 72z" />
<glyph unicode="&#xe615;" glyph-name="encashment" d="M703.744 514.144c12.992-5.024 24-5.024 32.992 0 11.008 6.016 10.496 11.488-1.504 16.512-11.008 6.016-22.016 6.016-32.992 0-11.008-8-10.496-13.504 1.504-16.512zM346.752 703.168c-12.992 6.016-24 6.016-32.992 0-11.008-7.008-10.496-13.024 1.504-18.016 12-4 23.008-3.52 32.992 1.504 9.984 4.992 9.504 10.496-1.504 16.512zM592.736 662.656c-23.008 9.984-48.992 15.008-78.016 15.008-35.008 0-64.512-6.528-88.48-19.488-27.008-14.016-39.008-31.488-36-52.512 0-22.016 15.008-39.52 44.992-52.512 24.992-9.984 51.488-15.008 79.488-15.008 32.992 0 62.496 6.496 88.512 19.488 24 14.016 36 31.488 36 52.512-1.984 23.008-17.472 40.512-46.496 52.512zM586.752 586.144c-19.008-11.008-43.008-16.512-72-16.512-25.984 0-48 4.512-65.984 13.504-17.984 6.976-26.976 15.008-26.976 24 0 6.976 6.496 14.496 19.488 22.496 18.976 11.008 43.488 16.512 73.472 16.512 25.984 0 48-4.512 65.984-13.504 16.992-7.008 25.504-15.008 25.504-24 0-8-6.496-15.488-19.488-22.496zM571.744 634.144l-8.992 4.512-13.504-7.488c-16.992 4.992-31.008 4.512-41.984-1.504-8.992-5.024-8.512-12.512 1.504-22.496 7.008-7.008 7.488-12 1.504-15.008-8.992-5.024-18.496-5.024-28.512 0-8 3.008-12.992 6.976-15.008 12l-12-3.008c0.992-4 6.016-8.512 15.008-13.504l-12-6.016 8.992-4.512 13.504 7.488c16-4 30.496-3.52 43.488 1.504 8.992 6.976 9.504 14.496 1.504 22.496s-8.992 13.504-3.008 16.512c7.008 4.992 15.488 4.512 25.504-1.504 4.992-2.016 9.504-5.024 13.504-8.992l12 3.008c-4 4-8.992 7.488-15.008 10.496l13.504 6.016zM909.248 473.664c0 5.984-3.488 10.496-10.496 13.472l-52.512 20.992c-0.64 0.416-1.248 0.448-1.888 0.768l57.376 38.24c4.992 3.008 7.488 8 7.488 15.008 0 4.992-3.488 9.504-10.496 13.504l-506.944 208.512c-5.024 1.984-8.992 1.504-12-1.504l-229.504-112.512c-6.016-0.992-9.024-5.472-9.024-13.472 0-7.008 3.008-12 8.992-15.008l61.44-28.928c-0.992-0.384-1.92-0.512-2.944-1.056l-58.496-28.512c-6.016-3.008-8.992-8-8.992-15.008s3.008-12 8.992-15.008l51.68-24.32-51.68-25.184c-6.016-3.008-8.992-8-8.992-15.008 0-6.016 3.008-10.496 8.992-13.472l51.68-24.32-51.68-25.184c-6.016-3.008-8.992-8.032-8.992-15.008 0-7.008 3.008-12 8.992-15.008l51.68-24.32-51.68-25.184c-6.016-3.008-8.992-8.032-8.992-15.008 0-6.016 3.008-10.496 8.992-13.504l519.008-246.016h3.008c1.984 0 4.992 0.96 8.992 3.008l220.512 147.008c4.992 3.968 7.488 8.992 7.488 15.008 0 6.976-3.488 11.456-10.496 13.504l-44.736 19.168 47.744 31.84c4.992 3.008 7.488 8 7.488 15.008 0 4.992-3.488 9.504-10.496 13.504l-45.632 18.24 48.64 32.736c4.992 1.984 7.488 6.496 7.488 13.504 0 6.976-3.488 11.456-10.496 13.504l-44.736 19.168 47.744 31.84c4.992 2.016 7.488 6.976 7.488 15.008zM193.76 656.672l193.504 94.496 472.48-193.504-188.992-125.984-476.992 224.992zM859.744 232.16l-188.992-126.016-476.992 226.528 30.016 13.504c5.184 2.88 7.968 6.528 8.832 10.72l433.664-204.224c0.992-0.992 3.008-1.504 6.016-1.504 1.984 0 4.992 0.96 8.992 3.008l144.352 96.256c1.568-3.232 4.384-5.856 8.64-7.744l25.472-10.528zM859.744 311.68l-188.992-126.016-476.992 225.024 30.016 15.008c5.44 2.4 8.224 6.080 8.896 10.688l433.6-204.192c0.992-0.992 3.008-1.504 6.016-1.504 4 0 7.008 0.512 8.992 1.504l143.968 96.96c1.664-2.816 4.544-5.184 9.024-6.976l25.472-10.496zM859.744 389.664l-188.992-126.016-476.992 226.496 30.016 13.504c4.544 2.848 7.136 6.592 8.096 11.072l434.368-204.544c0.992-0.992 3.008-1.504 6.016-1.504 1.984 0 4.992 0.96 8.992 3.008l143.872 95.904c1.664-3.072 4.576-5.6 9.12-7.424l25.504-10.496zM670.752 343.168l-476.992 224.992 30.016 15.008c8.768 3.872 11.232 10.688 7.68 20.256l434.784-204.736c0.992-0.992 3.008-1.504 6.016-1.504 1.984 0 4.992 0.96 8.992 3.008l143.168 95.456c-0.672-7.296 2.464-12.704 9.824-15.968l25.504-10.496-188.992-126.016z" />
<glyph unicode="&#xe616;" glyph-name="folder-close" d="M831.36 159.808h-612.224c-42.944 0-77.888 30.656-77.888 68.352v400.704c0 37.696 34.944 68.352 77.888 68.352h224.384c41.44 0 67.904-27.136 88.32-53.696l23.072-27.936h276.448c42.944 0 77.888-30.656 77.888-68.32v-319.072c0-37.728-34.944-68.384-77.888-68.384zM219.136 649.216c-17.632 0-29.888-10.72-29.888-20.352v-400.704c0-9.632 12.288-20.352 29.888-20.352h612.224c17.632 0 29.888 10.72 29.888 20.352v319.072c0 9.6-12.288 20.32-29.888 20.32h-287.744c-7.168 0-13.952 3.2-18.496 8.704l-30.784 37.28c-20.128 26.144-33.76 35.616-50.816 35.616h-224.384z" />
<glyph unicode="&#xe617;" glyph-name="folder-open" d="M906.144 541.024c-3.008 4.992-7.488 7.488-13.504 7.488h-54.72c-1.696 20.736-9.92 38.816-25.536 54.016-17.504 16.992-38.752 25.504-63.744 25.504h-166.496c-16 0-29.76 4.512-41.248 13.504s-17.248 20-17.248 32.992c0 20.992-8.992 39.232-27.008 54.752-17.984 15.488-39.488 23.264-64.512 23.264h-199.488c-24.992 0-46.496-7.744-64.512-23.264-17.984-15.52-26.976-33.76-26.976-54.752v-549.024c-1.408-3.488-0.8-6.656 0.736-9.632 1.6-7.424 6.72-11.36 15.776-11.36h607.488c7.008 0 12 4 15.008 12l128.992 411.008c1.984 4.992 0.992 9.504-3.008 13.504zM172.64 674.528c0 12 6.016 22.496 17.984 31.488s26.016 13.504 42.016 13.504h199.488c16 0 29.76-4.512 41.248-13.504s17.248-19.488 17.248-31.488c0-22.016 8.992-40.512 27.008-55.488s39.488-22.496 64.512-22.496h166.496c16 0 29.76-5.248 41.248-15.744 9.632-8.8 14.976-19.616 16.544-32.256h-521.28c-7.008 0-12-4-15.008-12l-97.504-310.656v448.64zM753.152 137.504h-574.496l118.496 378.016h574.496l-118.496-378.016z" />
<glyph unicode="&#xe618;" glyph-name="forward" d="M551.936 428.16c0 6.368-2.528 12.48-7.040 16.992l-360.384 360.352c-9.376 9.344-24.544 9.376-33.92 0s-9.376-24.576 0-33.952l343.392-343.392-342.656-342.688c-9.376-9.376-9.376-24.544 0-33.92 4.672-4.672 10.816-7.040 16.96-7.040s12.288 2.336 16.96 7.040l359.648 359.616c4.512 4.512 7.040 10.624 7.040 16.992zM899.936 445.12l-360.384 360.384c-9.376 9.344-24.544 9.376-33.92 0s-9.376-24.576 0-33.952l343.36-343.392-342.656-342.688c-9.376-9.376-9.376-24.544 0-33.92 4.672-4.672 10.816-7.040 16.96-7.040s12.288 2.336 16.96 7.040l359.648 359.616c4.512 4.512 7.040 10.592 7.040 16.992 0 6.368-2.496 12.448-7.008 16.96z" />
<glyph unicode="&#xe619;" glyph-name="fullscreen" d="M251.136 762.848l133.312-2.336c13.056-1.504 24.512 10.432 24.736 23.904 0.224 13.408-10.432 24.48-23.872 24.736l-193.472 3.36c-0.064 0-0.128-0.032-0.224-0.032-6.304 0.064-12.608-2.272-17.408-7.072-2.368-2.368-4.16-5.12-5.344-8.064-0.096-0.224-0.064-0.448-0.128-0.672-1.056-2.816-1.632-5.728-1.6-8.672 0-0.064-0.032-0.128-0.032-0.192l3.424-193.472c0.224-13.312 11.072-23.904 24.288-23.904 0.16 0 0.288 0 0.448 0 13.44 0.224 24.128 11.296 23.872 24.736l-2.368 133.28 217.216-217.184c4.736-4.736 10.976-7.136 17.184-7.136s12.448 2.368 17.184 7.136c9.472 9.504 9.472 24.864 0 34.368l-217.216 217.216zM912.64 796.64c-0.064 0.224-0.032 0.448-0.128 0.672-1.184 2.944-2.976 5.696-5.344 8.064-4.8 4.8-11.104 7.136-17.408 7.072-0.064 0-0.128 0.032-0.224 0.032l-193.472-3.424c-13.44-0.224-24.128-11.296-23.872-24.736 0.224-13.312 11.072-23.904 24.288-23.904 0.16 0 0.288 0 0.448 0l133.312 2.336-217.216-217.184c-9.472-9.504-9.472-24.864 0-34.368 4.736-4.736 10.976-7.136 17.184-7.136s12.448 2.368 17.184 7.136l217.216 217.216-2.336-133.344c-0.224-13.408 10.432-24.48 23.872-24.736 0.16 0 0.288 0 0.448 0 13.216 0 24.064 10.592 24.288 23.904l3.424 193.472c0 0.064-0.032 0.128-0.032 0.192 0 3.040-0.608 5.952-1.632 8.736zM883.392 69.056c0 0.064 0.032 0.16 0.032 0.224l-3.424 193.472c-0.224 13.28-11.072 23.872-24.288 23.872-0.16 0-0.288 0-0.448 0-13.44-0.224-24.128-11.296-23.872-24.768l2.368-133.28-217.216 217.216c-9.504 9.504-24.928 9.504-34.4 0-9.504-9.504-9.504-24.864 0-34.368l217.216-217.248-133.312 2.368c-13.152-0.736-24.48-10.432-24.736-23.904-0.224-13.408 10.432-24.48 23.872-24.736l193.504-3.424c0.16 0 0.288 0 0.416 0 3.136 0 6.272 0.608 9.216 1.824s5.664 2.976 7.968 5.28c2.368 2.368 4.16 5.12 5.344 8.064 0.032 0.128 0.032 0.256 0.064 0.384 1.152 2.944 1.696 5.952 1.696 9.024zM403.104 345.792l-217.184-217.216 2.336 133.312c0.224 13.408-10.432 24.48-23.872 24.736-12.928-0.96-24.48-10.432-24.736-23.904l-3.424-193.472c0-0.064 0.032-0.128 0.032-0.192-0.032-2.752 0.576-5.504 1.504-8.128 0.128-0.384 0.064-0.832 0.224-1.216 0.288-0.704 0.928-1.28 1.312-1.952 1.12-2.144 2.272-4.32 4.032-6.080 2.304-2.304 5.024-4.096 7.968-5.28 2.944-1.216 6.080-1.824 9.216-1.824 0.16 0 0.288 0 0.416 0l193.472 3.424c13.44 0.224 24.128 11.296 23.872 24.736-0.224 13.44-11.328 22.816-24.736 23.904l-133.312-2.368 217.216 217.248c9.472 9.504 9.472 24.864 0 34.368-9.408 9.408-24.832 9.408-34.336-0.096z" />
<glyph unicode="&#xe61a;" glyph-name="group-policy" d="M645.248 521.28c8 0 12.992 4 15.008 12 4 11.008 0.512 17.472-10.496 19.488l-321.024 88.512c-8.992 4-15.52 0.512-19.488-10.496-2.016-11.008 1.984-17.504 12-19.488l319.52-88.512c0.992-1.024 2.496-1.504 4.48-1.504zM348.256 687.776l319.52-88.512h4.512c8 0 12.992 4 15.008 12 4 8.992 0.512 15.488-10.496 19.488l-321.056 88.512c-8.992 4-15.52 0.512-19.488-10.496-2.016-11.008 1.984-18.016 12-20.992zM862.752 308.256c-16.576 16.064-35.2 27.488-55.488 34.944v154.080c0 9.984-5.504 15.008-16.512 15.008h-61.728l45.248 152.992c1.984 4.992 1.504 9.504-1.504 13.504-1.984 4-4.992 6.496-8.992 7.488l-456.032 125.984c-9.984 2.016-16.512-2.016-19.488-12l-70.368-236.992h-60.128c-11.008 0-16.512-5.024-16.512-15.008v-385.504c0-9.984 5.472-15.008 16.512-15.008h441.152c7.68-21.568 20-41.248 38.112-58.496 31.488-30.016 69.248-44.992 113.248-44.992s81.504 15.008 112.512 44.992 46.496 66.496 46.496 109.504-15.52 79.52-46.528 109.504zM315.232 776.256l424.512-116.992-43.392-147.008h-217.6l-70.496 49.504c-2.016 0.992-5.024 1.504-8.992 1.504h-148.608l64.576 212.992zM172.736 179.264v352.512h59.456c0.32 0 0.608 0 0.896 0h161.632l70.496-48c4-2.016 6.976-3.008 8.992-3.008h300v-129.632c-7.84 1.056-15.68 2.112-24 2.112-44 0-81.76-15.008-113.248-44.992s-47.264-66.496-47.264-109.504c0-6.752 1.088-13.056 1.856-19.488h-418.816zM840.256 111.776c-24.992-24-55.008-36-89.984-36s-65.248 12-90.752 36-38.24 52.992-38.24 87.008 12.736 63.008 38.24 87.008 55.744 36 90.752 36 64.992-12 89.984-36 37.504-52.992 37.504-87.008-12.512-63.008-37.504-87.008zM748.768 152.256c-9.984 0-15.008-5.504-15.008-16.512v-13.504c0-9.984 4.992-15.008 15.008-15.008h1.504c9.984 0 15.008 4.992 15.008 15.008v13.504c-0.032 11.008-5.504 16.512-16.512 16.512zM750.272 291.776c-11.008 0-16.512-5.504-16.512-16.512v-91.488c0-11.008 5.504-16.512 16.512-16.512 9.984 0 15.008 5.504 15.008 16.512v91.488c-0.032 11.008-5.024 16.512-15.008 16.512z" />
<glyph unicode="&#xe61b;" glyph-name="help" d="M796.576 157.216c-74.944-74.976-165.376-112.448-271.296-112.448-105.952 0-196.384 37.472-271.328 112.448-74.976 74.944-112.448 165.376-112.448 271.296s37.472 196.384 112.448 271.328c74.944 74.944 165.376 112.416 271.328 112.416 105.92 0 196.352-37.472 271.296-112.416s112.416-165.408 112.416-271.328-37.472-196.352-112.416-271.296zM774.080 677.344c-68.928 68.96-151.904 103.424-248.8 103.424-96.928 0-179.872-34.464-248.832-103.424-68.928-68.96-103.424-151.936-103.424-248.832s34.496-179.872 103.424-248.832c68.96-68.96 151.904-103.392 248.832-103.392 96.896 0 179.872 34.432 248.8 103.392 68.96 68.96 103.424 151.904 103.424 248.832s-34.464 179.872-103.424 248.832zM505.792 284.608c-9.984 0-15.008 4.96-15.008 14.976 0 1.984-0.512 3.488-1.472 4.512-4.032 51.968 12.96 100.928 50.944 146.912 49.984 61.952 74.976 108.416 74.976 139.392 0 36.96-18.496 61.952-55.456 74.944-22.016 8-45.504 8.992-70.432 3.008-24.992-6.016-44-17.984-56.96-35.968-8.032-8-15.488-8.512-22.496-1.504-8.992 6.976-9.984 14.464-3.008 22.496 17.984 22.976 42.464 38.208 73.472 45.728 30.976 7.488 60.928 6.24 89.952-3.744 50.976-17.984 76.448-52.992 76.448-104.928 0-40.992-27.488-93.952-82.432-158.88-35.008-41.984-48.96-83.456-41.984-124.416v-7.488c-0.064-10.048-5.568-15.040-16.544-15.040zM505.792 152.704c-9.984 0-15.008 5.472-15.008 16.512v37.44c0 11.008 4.992 16.512 15.008 16.512 11.008 0 16.512-5.504 16.512-16.512v-37.44c-0.032-11.040-5.536-16.512-16.512-16.512z" />
<glyph unicode="&#xe61c;" glyph-name="hide-alert" d="M709.376 453.536h-368.224c-13.824 0-25.024-11.2-25.024-25.024 0-13.856 11.2-25.024 25.024-25.024h368.224c13.856 0 25.024 11.2 25.024 25.024s-11.2 25.024-25.024 25.024zM765.248 812.512h-480c-79.392 0-144-64.608-144-144v-480c0-79.392 64.608-144 144-144h480c79.392 0 144 64.608 144 144v480c0 79.392-64.608 144-144 144zM861.28 188.512c0-52.928-43.072-96-96-96h-480c-52.928 0-96 43.072-96 96v480c0 52.928 43.072 96 96 96h480c52.928 0 96-43.072 96-96v-480z" />
<glyph unicode="&#xe61d;" glyph-name="html" d="M363.168 557.696l-221.92-129.152 221.92-129.216 22.752 39.072-154.816 90.144 154.816 90.080zM687.328 557.696l-22.72-39.072 154.816-90.080-154.816-90.144 22.72-39.072 221.92 129.216zM452.079 128.501l-43.058 13.909 189.339 586.125 43.058-13.909-189.339-586.125z" />
<glyph unicode="&#xe61e;" glyph-name="import" d="M909.248 544.512c0 0.992-0.448 1.856-0.576 2.816-0.192 1.664-0.448 3.264-0.992 4.864-0.544 1.536-1.28 2.912-2.112 4.288-0.512 0.864-0.672 1.856-1.312 2.688-0.32 0.416-0.832 0.64-1.184 1.024-1.056 1.216-2.272 2.144-3.552 3.104-1.248 0.96-2.432 1.888-3.808 2.56-1.28 0.64-2.624 0.96-4.032 1.344-1.664 0.448-3.232 0.896-4.96 0.992-0.512 0.032-0.96 0.288-1.472 0.288h-239.552c-13.248 0-24-10.752-24-24s10.752-24 24-24h169.088l-289.536-223.104-289.536 223.104h171.168c13.248 0 24 10.752 24 24s-10.752 24-24 24h-241.632c-0.544 0-0.992-0.288-1.536-0.32-1.664-0.096-3.2-0.512-4.8-0.96-1.44-0.416-2.848-0.736-4.192-1.408s-2.496-1.6-3.712-2.496c-1.312-0.992-2.56-1.92-3.616-3.136-0.352-0.416-0.864-0.608-1.184-1.024-0.64-0.832-0.8-1.824-1.312-2.688-0.832-1.376-1.568-2.752-2.112-4.288-0.544-1.6-0.8-3.2-0.992-4.864-0.128-0.96-0.576-1.824-0.576-2.816v-470.592c0-0.032 0.032-0.064 0.032-0.096 0-3.136 0.64-6.24 1.856-9.184 1.216-2.912 3.008-5.536 5.216-7.744 0.032-0.032 0.032-0.064 0.032-0.064 0.704-0.704 1.632-0.992 2.4-1.6 1.664-1.312 3.296-2.656 5.28-3.488 3.008-1.152 6.112-1.792 9.216-1.792h720c3.104 0 6.208 0.64 9.12 1.856 1.92 0.8 3.52 2.112 5.152 3.36 0.832 0.608 1.792 0.928 2.528 1.664 0 0 0.032 0.064 0.064 0.096 2.208 2.208 4 4.832 5.248 7.744 1.216 2.944 1.856 6.048 1.856 9.184 0 0.032 0.032 0.064 0.032 0.096v470.592zM658.176 339.232l203.072 156.48v-363.168l-203.072 206.688zM525.248 243.136c5.152 0 10.336 1.664 14.656 4.992l80 61.632 208.16-211.84h-605.44l208.544 211.424 79.456-61.216c4.288-3.328 9.472-4.992 14.624-4.992zM189.248 495.712l203.616-156.896-203.616-206.432v363.328zM407.52 506.176c-9.376-9.376-9.376-24.544 0-33.92l100.768-100.768c4.48-4.512 10.592-7.040 16.96-7.040s12.48 2.528 16.96 7.040l100.736 100.768c9.376 9.376 9.376 24.544 0 33.92s-24.544 9.376-33.92 0l-59.808-59.808v336.768c0 13.248-10.752 24-24 24s-24-10.752-24-24v-336.736l-59.84 59.808c-9.312 9.344-24.48 9.344-33.856-0.032z" />
<glyph unicode="&#xe61f;" glyph-name="insert-row" d="M553.76 482.528h-283.52c-11.008 0-16.512-5.024-16.512-15.008 0-11.008 5.504-16.512 16.512-16.512h283.488c9.984 0 15.008 5.504 15.008 16.512 0.032 9.984-4.992 15.008-14.976 15.008zM553.76 379.008h-283.52c-11.008 0-16.512-5.504-16.512-16.512s5.504-16.512 16.512-16.512h283.488c9.984 0 15.008 5.504 15.008 16.512s-4.992 16.512-14.976 16.512zM553.76 274.016h-283.52c-11.008 0-16.512-5.504-16.512-16.512 0-9.984 5.504-15.008 16.512-15.008h283.488c9.984 0 15.008 4.992 15.008 15.008 0.032 11.008-4.992 16.512-14.976 16.512zM862.016 310.752c-31.488 30.496-69.76 45.76-114.752 45.76-23.2 0-44.64-4.512-64.512-12.992v452.512c0 11.008-5.504 16.512-16.512 16.512h-508.48c-11.008 0-16.512-5.504-16.512-16.512v-658.528c0-11.008 5.504-16.512 16.512-16.512h450.688c6.88-10.784 14.784-21.184 24.8-30.752 32-30.496 70.016-45.76 113.984-45.76 44.992 0 83.264 15.264 114.752 45.76s47.264 67.264 47.264 110.24-15.744 79.776-47.232 110.272zM172.768 152.512v628.512h476.992v-457.12c-5.568-4.192-11.232-8.128-16.512-13.152-32-30.496-48-67.264-48-110.24 0-17.088 3.264-32.896 8.288-48h-420.768zM839.52 112.768c-25.504-24.512-56.256-36.736-92.256-36.736-35.008 0-65.248 12.256-90.752 36.736s-38.24 53.76-38.24 87.744 12.736 63.008 38.24 87.008 55.744 36 90.752 36c36 0 66.752-12 92.256-36s38.24-52.992 38.24-87.008-12.768-63.264-38.24-87.744zM819.264 215.52l-55.488 0.576v56.416c0 9.984-5.504 15.008-16.512 15.008s-16.512-4.992-16.512-15.008l0.576-56.096-56.096 0.576c-9.984 0-15.008-5.504-15.008-16.512s4.992-16.512 15.008-16.512h56.416l0.576-55.488c0-11.008 4.992-16.512 15.008-16.512 11.008 0 16.512 5.504 16.512 16.512v55.52h55.488c11.008 0 16.512 5.504 16.512 16.512 0 9.984-5.504 15.008-16.48 15.008zM553.76 587.52h-283.52c-11.008 0-16.512-5.504-16.512-16.512s5.504-16.512 16.512-16.512h283.488c9.984 0 15.008 5.472 15.008 16.512 0.032 11.008-4.992 16.512-14.976 16.512zM553.76 691.040h-283.52c-11.008 0-16.512-5.024-16.512-15.008 0-11.008 5.504-16.512 16.512-16.512h283.488c9.984 0 15.008 5.472 15.008 16.512 0.032 9.984-4.992 15.008-14.976 15.008z" />
<glyph unicode="&#xe620;" glyph-name="italic" d="M597.248 812.512l-256-768h112l256 768z" />
<glyph unicode="&#xe621;" glyph-name="lock" d="M730.752 44.512h-410.976c-27.008 0-49.76 9.504-68.256 28.512s-27.744 41.504-27.744 67.488v274.528c0 25.984 9.248 48.512 27.744 67.488s41.248 28.512 68.256 28.512h410.976c27.008 0 49.76-9.504 68.256-28.512s27.744-41.504 27.744-67.488v-274.528c0-27.008-8.992-49.504-27.008-67.488-20.992-19.008-44-28.512-68.992-28.512zM319.776 479.52c-17.984 0-33.248-6.528-45.76-19.488-12.512-12.992-18.752-28-18.752-44.992v-274.528c0-16.992 6.24-32 18.752-44.992s27.744-19.488 45.76-19.488h410.976c17.984 0 33.248 6.496 45.76 19.488s18.752 28 18.752 44.992v274.528c0 16.992-6.24 32-18.752 44.992s-27.744 19.488-45.76 19.488h-410.976zM711.232 479.52c-9.984 0-15.008 4.992-15.008 15.008v115.488c0 47.008-16.736 87.232-50.24 120.736s-73.76 50.24-120.736 50.24-87.232-16.736-120.736-50.24c-33.504-33.504-50.24-73.76-50.24-120.736v-115.488c0-9.984-4.992-15.008-15.008-15.008-11.008 0-16.512 4.992-16.512 15.008v115.488c0 56 19.744 103.744 59.264 143.264 39.488 39.488 87.232 59.264 143.232 59.264s103.744-19.744 143.264-59.264c39.488-39.52 59.264-87.264 59.264-143.264v-115.488c-0.032-10.016-5.536-15.008-16.544-15.008zM588.256 305.504c0 17.984-6.24 33.248-18.752 45.76s-27.264 18.752-44.256 18.752c-16.992 0-31.744-6.24-44.256-18.752s-18.752-27.744-18.752-45.76c0-27.008 12.992-46.496 39.008-58.496v-99.008h48v99.008c25.984 12 39.008 31.488 39.008 58.496z" />
<glyph unicode="&#xe622;" glyph-name="logout" d="M796.736 157.024c-75.008-75.008-165.472-112.512-271.488-112.512s-196.512 37.504-271.488 112.512-112.512 165.504-112.512 271.488c0 105.984 37.504 196.512 112.512 271.488s165.504 112.512 271.488 112.512 196.48-37.504 271.488-112.512 112.512-165.504 112.512-271.488c0-105.984-37.504-196.48-112.512-271.488zM774.24 677.504c-68.992 68.992-152 103.488-248.992 103.488s-180-34.496-248.992-103.488-103.488-152-103.488-248.992c0-96.992 34.496-180 103.488-248.992s152-103.488 248.992-103.488 180 34.496 248.992 103.488 103.488 152 103.488 248.992c0.032 96.992-34.496 180-103.488 248.992zM690.24 263.52c-45.984-46.016-100.992-68.992-164.992-68.992s-119.008 23.008-164.992 68.992-68.992 100.992-68.992 164.992c0 45.984 12.736 88.512 38.24 127.488s59.744 68 102.752 87.008c11.008 4 17.984 0.992 20.992-8.992 4-8.992 1.504-16-7.488-20.992-36.992-16-66.496-40.512-88.512-73.504s-32.992-70.016-32.992-111.008c0-56 19.488-103.488 58.496-142.496s86.496-58.496 142.496-58.496 103.488 19.488 142.496 58.496c38.976 39.008 58.496 86.496 58.496 142.496 0 40-10.752 76.512-32.256 109.504-21.472 32.992-50.24 57.984-86.24 75.008-9.984 3.008-12.992 9.984-8.992 20.992 4.992 8 12.512 10.496 22.496 7.488 41.984-19.008 75.488-47.776 100.48-86.24 24.992-38.496 37.504-80.768 37.504-126.752 0-64-22.976-119.008-68.992-164.992zM525.248 536.512c-11.008 0-16.512 5.472-16.512 16.512v145.504c0 11.008 5.504 16.512 16.512 16.512s16.512-5.504 16.512-16.512v-145.504c0-11.008-5.504-16.512-16.512-16.512z" />
<glyph unicode="&#xe623;" glyph-name="messages" d="M908.992 156.448h-767.488v544.128h767.488v-544.128zM525.28 294.336l-379.264 379.264 22.464 22.496 356.8-356.736 356.736 356.704 22.496-22.496-379.232-379.232zM403.84 441.248l22.496-22.496-257.856-257.792-22.464 22.464 257.824 257.824zM172.992 187.936h704.544v481.152h-704.544v-481.152zM648.192 442.752l257.856-257.824-22.496-22.464-257.824 257.824 22.464 22.464z" />
<glyph unicode="&#xe624;" glyph-name="new-details" d="M660.256 44.512h-433.504v768h596.992v-604.512l-163.488-163.488zM258.272 76.032h388.512l145.472 144v560.992h-533.984v-704.992zM330.272 688.032h389.984v-32.992h-389.984v32.992zM330.272 598.016h389.984v-31.488h-389.984v31.488zM330.272 508.032h389.984v-31.488h-389.984v31.488zM330.272 419.52h389.984v-32.992h-389.984v32.992zM330.272 329.504h389.984v-31.488h-389.984v31.488zM669.248 61.024h-31.488v169.504h170.976v-32.992h-139.488v-136.512z" />
<glyph unicode="&#xe625;" glyph-name="plus-o" d="M885.248 452.512h-336v336c0 13.248-10.752 24-24 24s-24-10.752-24-24v-336h-336c-13.248 0-24-10.752-24-24s10.752-24 24-24h336v-336c0-13.248 10.752-24 24-24s24 10.752 24 24v336h336c13.248 0 24 10.752 24 24 0 13.28-10.752 24-24 24z" />
<glyph unicode="&#xe626;" glyph-name="preview" d="M902.144 85.504l-269.024 269.024c92.096 109.408 86.848 273.408-16.096 376.352-52.64 52.672-122.656 81.664-197.088 81.664s-144.448-28.992-197.088-81.632c-108.672-108.704-108.672-285.504 0-394.208 54.336-54.304 125.696-81.504 197.088-81.504 63.84 0 127.616 21.92 179.264 65.376l269.056-269.024c4.672-4.672 10.816-7.008 16.96-7.008s12.288 2.336 16.992 7.040c9.312 9.312 9.312 24.544-0.064 33.92zM256.768 370.624c-89.984 89.952-89.984 236.352 0 326.304 43.584 43.584 101.504 67.584 163.136 67.584s119.552-24 163.136-67.584v0c89.984-89.952 89.984-236.352 0-326.304-89.92-89.952-236.32-89.952-326.272 0zM518.304 557.792h-74.4v74.4c0 13.248-10.752 24-24 24s-24-10.752-24-24v-74.4h-74.4c-13.248 0-24-10.752-24-24s10.752-24 24-24h74.4v-74.4c0-13.248 10.752-24 24-24s24 10.752 24 24v74.4h74.4c13.248 0 24 10.752 24 24s-10.752 24-24 24z" />
<glyph unicode="&#xe627;" glyph-name="print-back" d="M601.952 120.16c-3.936 0-6.912 0.928-8.832 2.944l-437.92 293.408c-4.928 2.944-7.36 6.848-7.36 11.776 0 5.92 2.432 10.336 7.36 13.28l437.92 291.936c5.888 3.936 11.296 4.416 16.224 1.472 5.888-2.944 8.832-7.36 8.832-13.28v-181.344c0-10.816-5.44-16.224-16.224-16.224-9.856 0-14.752 5.376-14.752 16.224v151.872l-395.168-263.936 395.168-263.904v156.288c0 9.824 4.896 14.752 14.752 14.752 10.784 0 16.224-4.928 16.224-14.752v-185.76c0-5.952-2.976-10.336-8.832-13.312-1.024-0.96-3.488-1.44-7.392-1.44zM886.464 120.16c-3.936 0-6.88 0.928-8.832 2.944l-437.856 293.408c-4.928 2.944-7.36 6.848-7.36 11.776 0 5.92 2.432 10.336 7.36 13.28l437.856 291.936c5.92 3.936 11.328 4.416 16.224 1.472 5.92-2.944 8.832-7.36 8.832-13.28v-586.784c0-5.952-2.944-10.336-8.832-13.312-0.992-0.96-3.456-1.44-7.392-1.44zM476.608 428.288l395.136-263.904v527.84l-395.136-263.936z" />
<glyph unicode="&#xe628;" glyph-name="print-forward" d="M448.384 737.664c3.936 0 6.912-0.96 8.864-2.976l439.008-294.112c4.928-2.944 7.36-6.88 7.36-11.84 0-5.92-2.432-10.336-7.36-13.312l-439.008-292.672c-5.92-3.936-11.328-4.448-16.288-1.472-5.92 2.944-8.832 7.392-8.832 13.312v181.824c0 10.848 5.408 16.256 16.256 16.256 9.888 0 14.784-5.408 14.784-16.256v-152.256l396.128 264.576-396.128 264.576v-156.672c0-9.824-4.896-14.752-14.784-14.752-10.848 0-16.256 4.928-16.256 14.752v186.24c0 5.92 2.944 10.336 8.832 13.312 1.024 0.992 3.488 1.472 7.424 1.472zM163.136 737.664c3.968 0 6.912-0.96 8.864-2.976l438.976-294.112c4.928-2.944 7.36-6.88 7.36-11.84 0-5.92-2.432-10.336-7.36-13.312l-438.976-292.672c-5.92-3.936-11.328-4.448-16.256-1.472-5.92 2.944-8.864 7.392-8.864 13.312v588.288c0 5.92 2.976 10.336 8.864 13.312 0.992 0.992 3.488 1.472 7.392 1.472zM574.016 428.736l-396.128 264.576v-529.152l396.128 264.576z" />
<glyph unicode="&#xe629;" glyph-name="printer" d="M829.76 218.528h-106.496c-9.984 0-15.008 5.504-15.008 16.512 0 9.984 4.992 15.008 15.008 15.008h106.496c12.992 0 24.256 4.736 33.76 14.24s14.24 20.736 14.24 33.76v247.488c0 12.992-4.736 24.224-14.24 33.76-9.504 9.504-20.736 14.24-33.76 14.24h-608.992c-12.992 0-24.256-4.736-33.76-14.24s-14.24-20.768-14.24-33.76v-247.488c0-12.992 4.736-24.256 14.24-33.76s20.736-14.24 33.76-14.24h106.496c9.984 0 15.008-4.992 15.008-15.008 0-11.008-4.992-16.512-15.008-16.512h-106.496c-22.016 0-40.736 7.744-56.256 23.264s-23.264 34.24-23.264 56.256v247.488c0 21.984 7.744 40.736 23.264 56.256 15.488 15.488 34.24 23.264 56.256 23.264h608.992c22.016 0 40.736-7.744 56.256-23.264 15.488-15.52 23.264-34.272 23.264-56.256v-247.488c0-22.016-7.744-40.736-23.264-56.256s-34.272-23.264-56.256-23.264zM747.232 44.512h-443.968c-4.992 0-8.992 1.984-12 6.016-3.008 3.008-4.512 7.008-4.512 12l32.992 235.488c0 8.992 4.992 13.504 15.008 13.504h380.992c9.984 0 15.008-4.512 15.008-13.504l32.992-235.488c0-4.992-1.504-8.992-4.512-12-2.976-4-6.976-6.016-12-6.016zM321.248 76.032h408l-28.512 204h-350.976l-28.512-204zM700.736 593.504c-11.008 0-16.512 4.992-16.512 15.008v172.512h-313.472v-172.512c0-9.984-5.504-15.008-16.512-15.008s-16.512 4.992-16.512 15.008v187.52c0 11.008 5.504 16.512 16.512 16.512h346.496c9.984 0 15.008-5.504 15.008-16.512v-187.488c0-10.016-4.992-15.040-15.008-15.040zM808.736 524.512c0 8-2.496 14.752-7.488 20.256-4.992 5.472-10.496 8.256-16.512 8.256-16 0-24-9.504-24-28.512 0-8 2.24-14.752 6.752-20.256s10.24-8.256 17.248-8.256c6.016 0 11.488 3.008 16.512 8.992s7.488 12.512 7.488 19.52z" />
<glyph unicode="&#xe62a;" glyph-name="redio-normal" d="M525.248 812.512c-211.744 0-384-172.256-384-384s172.256-384 384-384 384 172.256 384 384c0 211.744-172.256 384-384 384zM525.248 94.592c-184.128 0-333.952 149.824-333.952 333.952s149.824 333.952 333.952 333.952 333.952-149.856 333.952-333.984c0-184.16-149.824-333.92-333.952-333.92z" />
<glyph unicode="&#xe62b;" glyph-name="redio-selected" d="M525.248 812.512c-211.744 0-384-172.256-384-384s172.256-384 384-384 384 172.256 384 384c0 211.744-172.256 384-384 384zM525.248 94.592c-184.128 0-333.952 149.824-333.952 333.952s149.824 333.952 333.952 333.952 333.952-149.856 333.952-333.984c0-184.16-149.824-333.92-333.952-333.92zM654.752 428.512c0-71.523-57.981-129.504-129.504-129.504s-129.504 57.981-129.504 129.504c0 71.523 57.981 129.504 129.504 129.504s129.504-57.981 129.504-129.504z" />
<glyph unicode="&#xe62c;" glyph-name="redo" d="M491.488 686.624l-87.008 81.376c-10.368 9.696-10.944 25.984-1.216 36.352 9.728 10.4 25.984 10.976 36.384 1.216l136.16-127.296c5.088-4.736 8.032-11.36 8.16-18.336s-2.592-13.728-7.552-18.624l-136.16-136.064c-5.024-5.024-11.616-7.552-18.176-7.552-6.592 0-13.184 2.528-18.208 7.552-10.048 10.048-10.048 26.336 0 36.384l94.080 94.016c-136.384-13.728-243.2-129.184-243.2-269.12 0-149.152 121.376-270.528 270.528-270.528s270.528 121.376 270.528 270.528c0 84.256-38.752 159.584-99.328 209.248 4.256 21.824 17.024 33.632 33.28 39.264 71.712-59.104 117.504-148.544 117.504-248.512 0-177.536-144.416-321.952-321.952-321.952s-322.016 144.352-322.016 321.92c0 166.112 126.464 303.2 288.192 320.128z" />
<glyph unicode="&#xe62d;" glyph-name="reports" d="M723.104 133.216h122.944c10.976 0 16.48 5.504 16.48 16.512v421.184c0 10.976-5.504 16.512-16.48 16.512h-122.944c-11.008 0-16.48-5.504-16.48-16.512v-421.216c0.032-10.976 5.504-16.48 16.48-16.48zM738.112 554.432h92.928v-389.728h-92.928v389.728zM892.512 77.76h-719.52v716.512c0 10.976-4.992 16.48-14.976 16.48-11.040 0-16.512-5.504-16.512-16.48v-731.488c0-11.008 5.472-16.512 16.512-16.512h734.496c10.976 0 16.48 5.504 16.48 16.512 0 9.952-5.504 14.976-16.48 14.976zM481.792 133.216h122.912c11.008 0 16.512 5.504 16.512 16.512v577.088c0 10.976-5.504 16.48-16.512 16.48h-122.912c-11.040 0-16.512-5.504-16.512-16.48v-577.12c0.032-10.976 5.504-16.48 16.512-16.48zM496.768 711.808h92.928v-547.104h-92.928v547.104zM240.448 133.216h122.912c11.008 0 16.512 5.504 16.512 16.512v209.856c0 10.976-5.504 16.512-16.512 16.512h-122.912c-11.008 0-16.512-5.536-16.512-16.512v-209.856c0.032-11.008 5.536-16.512 16.512-16.512zM255.456 344.576h92.928v-179.872h-92.928v179.872z" />
<glyph unicode="&#xe62e;" glyph-name="save" d="M909.248 44.512h-768v768h680.992c24 0 44.512-8.512 61.504-25.504 16.992-17.024 25.504-37.504 25.504-61.504v-680.992zM172.768 76.032h704.992v649.472c0 15.008-5.504 28-16.512 39.008s-24 16.512-39.008 16.512h-649.472v-704.992zM754.752 574.016h-458.976v238.496h458.976v-238.496zM328.768 605.504h392.992v175.52h-392.992v-175.52zM640 238.752c-31.488-31.488-69.76-47.264-114.752-47.264s-83.264 15.744-114.752 47.264-47.264 69.248-47.264 113.248 15.744 81.504 47.264 112.512c31.488 30.976 69.76 46.496 114.752 46.496s83.264-15.52 114.752-46.496c31.488-31.008 47.232-68.512 47.232-112.512s-15.712-81.728-47.232-113.248zM616.768 442.016c-24.992 24.992-55.488 37.504-91.488 37.504s-66.496-12.512-91.488-37.504c-24.992-24.992-37.504-55.008-37.504-89.984s12.512-65.248 37.504-90.752 55.488-38.24 91.488-38.24 66.496 12.736 91.488 38.24 37.504 55.744 37.504 90.752-12.512 64.992-37.504 89.984z" />
<glyph unicode="&#xe62f;" glyph-name="sent-print" d="M219.616 108.96c-1.696 0-4.16 0.8-7.456 2.496-4.192 2.496-6.24 6.24-6.24 11.232v611.296c0 4.992 2.048 8.736 6.24 11.232 4.96 3.328 9.12 3.744 12.48 1.248l612.512-305.664c4.992-2.496 7.488-6.24 7.488-11.232 0-5.824-2.496-9.984-7.488-12.48l-612.512-306.88c-0.864-0.832-2.528-1.248-5.024-1.248zM232.064 712.768v-568.864l570.144 285.696-570.144 283.168z" />
<glyph unicode="&#xe630;" glyph-name="show-alert" d="M709.376 453.536h-159.072v159.104c0 13.824-11.2 25.024-25.024 25.024s-25.024-11.2-25.024-25.024v-159.104h-159.104c-13.824 0-25.024-11.2-25.024-25.024 0-13.856 11.2-25.024 25.024-25.024h159.104v-159.072c0-13.856 11.2-25.024 25.024-25.024 13.856 0 25.024 11.2 25.024 25.024v159.072h159.072c13.856 0 25.024 11.2 25.024 25.024s-11.2 25.024-25.024 25.024zM765.248 812.512h-480c-79.392 0-144-64.608-144-144v-480c0-79.392 64.608-144 144-144h480c79.392 0 144 64.608 144 144v480c0 79.392-64.608 144-144 144zM861.28 188.512c0-52.928-43.072-96-96-96h-480c-52.928 0-96 43.072-96 96v480c0 52.928 43.072 96 96 96h480c52.928 0 96-43.072 96-96v-480z" />
<glyph unicode="&#xe631;" glyph-name="submit" d="M275.904 645.92h276.736c13.248 0 24 10.752 24 24s-10.752 24-24 24h-276.736c-13.248 0-24-10.752-24-24s10.752-24 24-24zM275.904 543.936h276.736c13.248 0 24 10.752 24 24s-10.752 24-24 24h-276.736c-13.248 0-24-10.752-24-24s10.752-24 24-24zM275.904 441.952h276.736c13.248 0 24 10.752 24 24s-10.752 24-24 24h-276.736c-13.248 0-24-10.752-24-24s10.752-24 24-24zM275.904 339.968h276.736c13.248 0 24 10.752 24 24s-10.752 24-24 24h-276.736c-13.248 0-24-10.752-24-24s10.752-24 24-24zM552.64 285.984h-276.736c-13.248 0-24-10.752-24-24s10.752-24 24-24h276.736c13.248 0 24 10.752 24 24s-10.752 24-24 24zM742.688 366.016c-19.424 0-38.016-3.392-55.36-9.312v431.808c0 13.248-10.752 24-24 24h-498.080c-13.248 0-24-10.752-24-24v-645.12c0-13.248 10.752-24 24-24h436.864c29.568-44.928 81.472-74.88 140.576-74.88 91.84 0 166.56 72.128 166.56 160.768s-74.688 160.736-166.56 160.736zM189.248 167.392v597.152h450.080v-433.408c-38.432-29.472-63.232-74.848-63.232-125.824 0-13.088 1.792-25.728 4.864-37.92h-391.712zM742.688 92.512c-65.376 0-118.592 50.592-118.592 112.8 0 62.176 53.216 112.736 118.592 112.736s118.56-50.56 118.56-112.736c0.032-62.208-53.184-112.8-118.56-112.8zM836.096 271.36c-9.376 9.376-24.544 9.376-33.92 0l-82.144-82.144-37.792 33.92c-9.824 8.832-25.024 8.032-33.888-1.856-8.832-9.888-8.032-25.056 1.856-33.888l54.72-49.088c4.576-4.096 10.304-6.112 16.032-6.112 6.144 0 12.32 2.336 16.96 7.040l98.208 98.24c9.344 9.344 9.344 24.512-0.032 33.888z" />
<glyph unicode="&#xe632;" glyph-name="team" d="M283.744 67.008h-142.496v16.512c0 25.984 6.752 50.464 20.256 73.504 13.504 23.008 25.248 38.752 35.264 47.264 9.984 8.48 17.504 13.728 22.496 15.744 8.992 6.016 16.512 4.512 22.496-4.512 6.016-9.984 4.512-17.504-4.512-22.496-35.008-23.040-56-55.008-63.008-96h109.504c11.008 0 16.512-5.024 16.512-15.008s-5.504-15.008-16.512-15.008zM340.768 196.768c-16-15.52-35.488-23.264-58.496-23.264s-42.752 7.712-59.264 23.264c-16.512 15.488-24.736 33.76-24.736 54.752 0 20 8.256 37.728 24.736 53.248 16.512 15.488 36.256 23.264 59.264 23.264s42.496-7.488 58.496-22.496 24-32.992 24-54.016-8-39.264-24-54.752zM318.24 282.272c-9.984 8.48-22.016 12.736-36 12.736s-25.984-4.288-36-12.736c-9.984-8.512-15.008-18.752-15.008-30.752s4.992-22.496 15.008-31.488c10.016-8.992 22.016-13.504 36-13.504s25.984 4.512 36 13.504 15.008 19.488 15.008 31.488-4.992 22.24-15.008 30.752zM424.768 67.008h-141.024c-11.008 0-16.512 5.472-16.512 16.512 0 9.984 5.504 15.008 16.512 15.008h106.496c-0.992 6.976-2.496 13.504-4.512 19.488s-4.256 11.744-6.752 17.248c-2.496 5.472-5.248 10.496-8.256 15.008s-6.016 8.736-8.992 12.736c-3.008 3.968-6.016 7.712-8.992 11.264-3.008 3.488-6.016 6.496-8.992 8.992-3.008 2.464-5.504 4.512-7.488 6.016s-4 2.752-6.016 3.744l-1.504 1.504c-11.008 4.992-12.512 12.512-4.512 22.496 4.992 9.984 12.512 11.456 22.496 4.512 4.992-2.016 12.512-7.488 22.496-16.512s21.76-24.992 35.264-48c13.504-23.040 20.256-47.040 20.256-72v-18.016zM769.76 358.016c-9.984 0-15.008 5.472-15.008 16.512v39.008h-452.992v-39.008c0-11.040-5.504-16.512-16.512-16.512s-16.512 5.472-16.512 16.512v72h517.504v-72c0-11.040-5.472-16.512-16.48-16.512zM528.256 524.512h-142.496v16.512c0 11.008 0.992 21.504 3.008 31.488 1.984 9.984 4.736 18.976 8.256 27.008 3.488 8 7.744 16 12.736 24s9.76 14.752 14.24 20.256c4.512 5.472 9.248 10.72 14.24 15.744 4.992 4.992 8.992 8.992 12 12s6.016 5.472 8.992 7.488l4.512 3.008c9.984 4.992 17.504 3.008 22.496-6.016 7.008-8 5.504-15.52-4.512-22.496-36-24-56.512-56.992-61.504-99.008h108c11.008 0 16.512-5.024 16.512-15.008 0.032-9.984-5.472-14.976-16.48-14.976zM587.52 656.512c-16.512-15.008-36.256-22.496-59.264-22.496s-42.496 7.488-58.496 22.496-24 33.504-24 55.488c0 21.984 8 40.512 24 55.488s35.488 22.496 58.496 22.496c23.008 0 42.752-7.488 59.264-22.496s24.736-33.504 24.736-55.488c0-21.984-8.256-40.48-24.736-55.488zM564.256 745.024c-9.984 8.992-22.016 13.504-36 13.504s-25.984-4.512-36-13.504-15.008-20-15.008-32.992c0-12.992 4.992-24 15.008-32.992s21.984-13.504 36-13.504 25.984 4.512 36 13.504 15.008 20 15.008 32.992c0 12.96-5.024 24-15.008 32.992zM669.248 524.512h-140.992c-11.008 0-16.512 5.472-16.512 16.512 0 9.984 5.504 15.008 16.512 15.008h108c-0.992 6.976-2.496 13.728-4.512 20.256-1.984 6.496-4.256 12.512-6.752 17.984s-5.248 10.72-8.256 15.744c-3.008 4.992-6.24 9.248-9.76 12.736-3.488 3.488-6.752 6.976-9.76 10.496-3.008 3.488-6.016 6.496-8.992 8.992-3.008 2.496-5.504 4.736-7.488 6.752-1.984 1.984-3.488 3.488-4.512 4.512l-3.008 1.504c-8 6.016-9.504 13.504-4.512 22.496s12.512 11.008 22.496 6.016l8.992-7.488c6.016-5.024 12.736-11.488 20.256-19.488 7.488-8 15.008-17.504 22.496-28.512s13.76-24 18.752-39.008 7.488-31.008 7.488-48v-16.512zM528.256 413.504c-11.008 0-16.512 5.472-16.512 16.512v53.984c0 11.008 5.504 16.512 16.512 16.512s16.512-5.504 16.512-16.512v-53.984c0-11.008-5.504-16.512-16.512-16.512zM768.256 67.008h-140.992v16.512c0 25.984 6.752 50.24 20.256 72.736s25.76 38.464 36.736 48c11.008 9.504 18.496 14.752 22.496 15.744 8 6.976 15.008 5.472 20.992-4.512 8-9.984 6.496-17.504-4.512-22.496-35.008-23.040-55.488-55.008-61.504-96h106.496c11.008 0 16.512-5.024 16.512-15.008 0.032-9.952-5.472-14.976-16.48-14.976zM827.52 196.768c-16.512-15.52-36.256-23.264-59.264-23.264s-42.496 7.712-58.496 23.264c-16 15.488-24 33.76-24 54.752s8 39.008 24 54.016 35.488 22.496 58.496 22.496 42.752-7.744 59.264-23.264c16.512-15.52 24.736-33.248 24.736-53.248 0-20.992-8.256-39.264-24.736-54.752zM804.256 282.272c-9.984 8.48-22.016 12.736-36 12.736s-25.984-4.288-36-12.736c-9.984-8.512-15.008-18.752-15.008-30.752s4.992-22.496 15.008-31.488 22.016-13.504 36-13.504 25.984 4.512 36 13.504 15.008 19.488 15.008 31.488-5.024 22.24-15.008 30.752zM909.248 67.008h-140.992c-11.008 0-16.512 5.472-16.512 16.512 0 9.984 5.504 15.008 16.512 15.008h108c-0.992 6.976-2.496 13.504-4.512 19.488s-4.256 11.744-6.752 17.248c-2.496 5.472-5.248 10.496-8.256 15.008s-6.24 8.736-9.76 12.736c-3.488 3.968-6.752 7.712-9.76 11.264-3.008 3.488-6.016 6.496-8.992 8.992-3.008 2.464-5.504 4.512-7.488 6.016s-3.488 2.752-4.512 3.744l-3.008 1.504c-8.992 4.992-10.496 12.512-4.512 22.496 4.992 9.984 12.512 11.456 22.496 4.512 4.992-2.016 12.512-7.488 22.496-16.512s21.76-24.992 35.264-48c13.504-23.040 20.256-47.040 20.256-72v-18.016z" />
<glyph unicode="&#xe633;" glyph-name="trash" d="M667.685 611.483l31.485-1.5-23.016-482.988-31.485 1.5 23.016 482.988zM382.417 611.522l22.484-482.988-31.485-1.466-22.484 482.988 31.485 1.466zM832.8 685.28c-0.736 2.304-1.856 4.224-3.392 5.76-41.984 36.992-103.488 62.496-184.512 76.512v28.48c0 11.008-5.504 16.512-16.512 16.512h-204c-11.008 0-16.512-5.504-16.512-16.512v-30.016c-76.96-11.552-136.384-35.456-179.136-71.104-3.232-0.608-6.144-1.696-8.32-3.904-3.008-4.992-4.48-9.504-4.48-13.504l44.992-617.984c0-9.984 5.504-15.008 16.512-15.008h495.008c11.008 0 16.512 4.992 16.512 15.008l44.64 613.088c0.064 0.16 0.288 0.224 0.352 0.416 1.28 4.544 0.544 8.512-1.152 12.256zM424.416 737.504c8.992 1.984 13.504 7.488 13.504 16.512v27.008h174.016v-25.504c0-8.992 4-14.496 12-16.512 52-7.008 99.008-21.504 140.992-43.488h-480c39.008 20 85.504 33.984 139.488 41.984zM757.408 76.032h-466.496l-40.48 588h548.992l-42.016-588zM508.416 611.52h32.992v-484.512h-32.992v484.512z" />
<glyph unicode="&#xe634;" glyph-name="tree-close" d="M525.248 812.512c-211.744 0-384-172.256-384-384s172.256-384 384-384 384 172.256 384 384c0 211.744-172.256 384-384 384zM525.248 94.592c-184.128 0-333.952 149.824-333.952 333.952s149.824 333.92 333.952 333.92 333.952-149.824 333.952-333.952c0-184.16-149.824-333.92-333.952-333.92zM709.344 453.536h-368.224c-13.824 0-25.024-11.2-25.024-25.024 0-13.856 11.2-25.024 25.024-25.024h368.224c13.856 0 25.024 11.2 25.024 25.024 0.032 13.792-11.168 25.024-25.024 25.024z" />
<glyph unicode="&#xe635;" glyph-name="tree-open" d="M525.248 812.512c-211.744 0-384-172.256-384-384s172.256-384 384-384 384 172.256 384 384c0 211.744-172.256 384-384 384zM525.248 94.592c-184.128 0-333.952 149.824-333.952 333.952s149.824 333.952 333.952 333.952 333.952-149.856 333.952-333.984c0-184.16-149.824-333.92-333.952-333.92zM709.344 453.536h-159.072v159.104c0 13.824-11.2 25.024-25.024 25.024s-25.024-11.2-25.024-25.024v-159.104h-159.104c-13.824 0-25.024-11.2-25.024-25.024 0-13.856 11.2-25.024 25.024-25.024h159.104v-159.072c0-13.856 11.2-25.024 25.024-25.024 13.856 0 25.024 11.2 25.024 25.024v159.072h159.072c13.856 0 25.024 11.2 25.024 25.024 0.032 13.792-11.168 25.024-25.024 25.024z" />
<glyph unicode="&#xe636;" glyph-name="uncheck-box" d="M765.248 812.512h-480c-79.392 0-144-64.608-144-144v-480c0-79.392 64.608-144 144-144h480c79.392 0 144 64.608 144 144v480c0 79.392-64.608 144-144 144zM861.28 188.512c0-52.928-43.072-96-96-96h-480c-52.928 0-96 43.072-96 96v480c0 52.928 43.072 96 96 96h480c52.928 0 96-43.072 96-96v-480z" />
<glyph unicode="&#xe637;" glyph-name="underline" d="M678.24 812.512v-384.096c0-142.080-61.952-205.504-156.32-205.504-85.76 0-149.632 61.472-149.632 205.504v384.096h-83.872v-381.216c0-201.632 99.104-276.576 230.624-276.576 139.136 0 243.040 80.672 243.040 279.424v378.368h-83.84zM288.416 104.672h473.664v-60.16h-473.664v60.16z" />
<glyph unicode="&#xe638;" glyph-name="undo" d="M559.040 686.624l87.008 81.376c10.368 9.696 10.944 25.984 1.216 36.352-9.728 10.4-25.984 10.976-36.384 1.216l-136.16-127.296c-5.088-4.736-8.032-11.36-8.16-18.336s2.592-13.728 7.552-18.624l136.16-136.064c5.024-5.024 11.616-7.552 18.176-7.552 6.592 0 13.184 2.528 18.208 7.552 10.048 10.048 10.048 26.336 0 36.384l-94.080 94.016c136.384-13.728 243.2-129.184 243.2-269.12 0-149.152-121.376-270.528-270.528-270.528s-270.528 121.376-270.528 270.528c0 84.256 38.752 159.584 99.328 209.248-4.256 21.824-17.024 33.632-33.28 39.264-71.712-59.104-117.504-148.544-117.504-248.512 0-177.536 144.416-321.952 321.952-321.952s321.952 144.416 321.952 321.952c0.064 166.080-126.432 303.168-288.128 320.096z" />
<glyph unicode="&#xe639;" glyph-name="up" d="M726.112 621.856l-183.872 183.904c-8.96 9.024-24.96 9.024-33.952 0l-183.872-183.904c-9.376-9.376-9.376-24.544 0-33.952s24.544-9.376 33.952 0l142.912 142.912v-662.304c0-13.248 10.752-24 24-24s24 10.752 24 24v662.304l142.912-142.912c4.704-4.704 10.816-7.040 16.96-7.040s12.288 2.336 16.96 7.040c9.376 9.376 9.376 24.576 0 33.952z" />
<glyph unicode="&#xe63a;" glyph-name="view-log" d="M902.24 85.472l-186.656 186.656c110.848 128.352 105.696 322.944-16.096 444.736v0c-127.52 127.488-335.040 127.488-462.592-0.032-127.488-127.52-127.488-335.040 0.032-462.56 63.776-63.744 147.52-95.616 231.264-95.616 76.224 0 152.288 26.72 213.472 79.52l186.624-186.656c4.704-4.704 10.848-7.040 16.992-7.040s12.288 2.336 16.96 7.008c9.344 9.44 9.344 24.64 0 33.984zM270.848 288.256c-108.8 108.832-108.832 285.856-0.032 394.656 54.432 54.432 125.888 81.632 197.376 81.632 71.456 0 142.944-27.2 197.344-81.6 108.8-108.832 108.8-285.888 0-394.688s-285.856-108.8-394.688 0z" />
<glyph unicode="&#xe63b;" glyph-name="angle-top" d="M885.568 231.68c0-6.144-2.336-12.288-7.040-16.96-9.376-9.376-24.544-9.376-33.92 0l-342.688 342.656-343.392-343.392c-9.376-9.376-24.576-9.376-33.952 0s-9.376 24.544 0 33.92l360.384 360.384c4.512 4.512 10.592 7.040 16.992 7.040 6.368 0 12.48-2.528 16.992-7.040l359.584-359.648c4.704-4.672 7.040-10.816 7.040-16.96z" />
<glyph unicode="&#xe63c;" glyph-name="angle-bottom" d="M117.568 590.592c0 6.144 2.336 12.288 7.040 16.96 9.376 9.376 24.544 9.376 33.92 0l342.688-342.656 343.392 343.392c9.376 9.376 24.576 9.376 33.952 0s9.376-24.544 0-33.92l-360.384-360.384c-4.512-4.512-10.592-7.040-16.992-7.040s-12.48 2.528-16.992 7.040l-359.584 359.648c-4.704 4.704-7.040 10.816-7.040 16.96z" />
<glyph unicode="&#xe63d;" glyph-name="carrot-down" d="M972.8 563.2l-416-416c-12.8-12.8-28.8-19.2-44.8-19.2s-32 6.4-41.6 19.2l-416 416c-9.6 9.6-19.2 25.6-19.2 41.6 0 32 25.6 60.8 60.8 60.8h832c32 0 60.8-25.6 60.8-60.8 0-16-6.4-32-16-41.6z" />
<glyph unicode="&#xe63e;" glyph-name="downarrow" d="M512 419.2c6.4 0 12.8 3.2 16 6.4l361.6 361.6c9.6 9.6 9.6 25.6 0 35.2s-25.6 9.6-35.2 0l-342.4-345.6-342.4 345.6c-9.6 9.6-25.6 9.6-35.2 0-3.2-6.4-6.4-12.8-6.4-19.2s3.2-12.8 6.4-16l358.4-358.4c6.4-6.4 12.8-9.6 19.2-9.6zM528 73.6l361.6 361.6c9.6 9.6 9.6 25.6 0 35.2s-25.6 9.6-35.2 0l-342.4-345.6-342.4 342.4c-9.6 9.6-25.6 9.6-35.2 0-3.2-6.4-6.4-12.8-6.4-19.2s3.2-12.8 6.4-16l358.4-358.4c3.2-3.2 9.6-6.4 16-6.4 9.6-3.2 16 0 19.2 6.4z" />
<glyph unicode="&#xe900;" glyph-name="alert" d="M512 285.867c-8.533 0-12.8 8.533-12.8 12.8v311.467c0 8.533 8.533 12.8 12.8 12.8s12.8-8.533 12.8-12.8v-311.467c0-8.533-4.267-12.8-12.8-12.8zM512 204.8c-8.533 0-12.8 8.533-12.8 12.8v25.6c0 8.533 8.533 12.8 12.8 12.8s12.8-8.533 12.8-12.8v-25.6c0-8.533-4.267-12.8-12.8-12.8zM925.867 102.4h-827.733c-4.267 0-8.533 4.267-12.8 8.533s-4.267 8.533 0 12.8l418.133 644.267c4.267 4.267 8.533 4.267 12.8 4.267 0 0 0 0 0 0 4.267 0 8.533-4.267 12.8-8.533l409.6-644.267c4.267-4.267 4.267-8.533 0-12.8s-8.533-4.267-12.8-4.267zM128 132.267h768l-384 601.6-384-601.6z" />
</font>
</defs>
</svg>
